<?xml version="1.0" standalone="no"?>
<!DOCTYPE svg PUBLIC "-//W3C//DTD SVG 20010904//EN"
 "http://www.w3.org/TR/2001/REC-SVG-20010904/DTD/svg10.dtd">
<svg version="1.0" xmlns="http://www.w3.org/2000/svg"
 width="500.000000pt" height="500.000000pt" viewBox="0 0 500.000000 500.000000"
 preserveAspectRatio="xMidYMid meet">

<g transform="translate(0.000000,500.000000) scale(0.100000,-0.100000)"
fill="#000000" stroke="none">
<path d="M0 2500 l0 -2500 2500 0 2500 0 0 2500 0 2500 -2500 0 -2500 0 0
-2500z m3939 1326 l34 -35 -1 -108 c-1 -241 -55 -477 -174 -753 -167 -391
-504 -826 -870 -1123 -43 -35 -47 -43 -53 -95 -27 -233 -118 -430 -276 -596
-93 -99 -171 -157 -289 -216 -89 -45 -228 -95 -237 -86 -2 2 8 21 22 42 78
114 132 275 142 422 l6 93 -48 -21 -47 -20 -207 197 c-113 109 -299 288 -413
397 l-207 198 19 39 c11 21 20 41 20 45 0 10 -174 -5 -244 -21 -117 -27 -238
-77 -310 -128 l-29 -21 6 33 c4 18 18 59 31 92 88 219 282 426 501 536 116 58
320 113 421 113 30 0 51 18 201 168 190 190 315 293 518 428 441 291 904 448
1341 453 l110 1 33 -34z m-2294 -2183 c217 -207 395 -380 395 -383 0 -4 -161
-102 -173 -104 -7 -1 -727 685 -727 692 0 7 103 172 108 172 1 0 180 -170 397
-377z"/>
<path d="M3007 3234 c-99 -31 -180 -157 -162 -252 16 -88 88 -169 171 -192 53
-15 139 -8 182 14 43 22 92 74 113 121 54 119 -21 270 -153 310 -63 18 -88 18
-151 -1z"/>
</g>
</svg>
