<?xml version="1.0" encoding="utf-8"?>
<!-- Uploaded to: SVG Repo, www.svgrepo.com, Generator: SVG Repo Mixer Tools -->
<svg width="800px" height="800px" viewBox="-38.76 0 326.261 326.261" xmlns="http://www.w3.org/2000/svg"><defs><style>.a{fill:#ffffff;}.b{fill:#957f6e;}.c{fill:#211715;}.d{fill:#b3b3b3;}</style></defs><path class="a" d="M146.615,181.953h-.628a101.589,101.589,0,0,1-23.181-3.331l-.885-.316c3.88,11.444,7.894,23.113,11.743,33.844,4.428,12.343,9.4,25.41,13.9,37.838,4.928-13.765,8.552-23.512,13.405-37.041,4.058-11.312,8.612-23.712,12.542-35.939-1.218.5-2.269.922-2.391.923C164.1,180.723,153.965,181.905,146.615,181.953Z"/><path class="a" d="M195.67,81.218a7.253,7.253,0,0,1,5.8-1.7,6.848,6.848,0,0,1,4.923,3.273,9.662,9.662,0,0,1,1.014,3.894,29.01,29.01,0,0,1-2.958,15.378,18.42,18.42,0,0,1-4.768,6.257A12.215,12.215,0,0,1,194,110.884l-.974.151c-.466,1.746-.99,3.217-1.247,4-1.7,4.627-11.481,20.983-23.633,26.2-.021,3.276-.092,7.052,1.059,9.886.87,2.15,4.95,5.34,9.24,8.24,0,0-2.359,31.914-32.581,31.914s-30.069-32.124-30.069-32.124c4.58-2.84,8.83-5.93,9.68-8.03,1.121-2.782,1.07-6.446,1.05-9.677a41.59,41.59,0,0,1-15.242-11.915,49.433,49.433,0,0,1-9.451-18.53,11.652,11.652,0,0,1-7.488-2.67,18.42,18.42,0,0,1-4.768-6.257,29.01,29.01,0,0,1-2.958-15.378,9.662,9.662,0,0,1,1.014-3.894,6.848,6.848,0,0,1,4.923-3.273,7.253,7.253,0,0,1,5.8,1.7s2.1-45.8,50.1-45.8C197.788,35.416,195.67,81.218,195.67,81.218Z"/><path class="b" d="M208.391,60.14c-1.052-14.775-7.658-31.275-17.164-40.445-4.11-3.965-5.3-5.816-9.777-8.244l-7-3.8-3.731-1.438c-6.608-2.546-12.752-3.77-24.347-3.77-19.011,0-35.932,9.794-43.44,16.982C90.471,31.348,82.569,53.129,83.565,83.164h0c.01,21.89-1.66,37.68-4,46.65-.328,1.269-.648,2.718-.954,4.272a56.221,56.221,0,0,0-2.727,16.3c-.087,4.745.732,10.076,4.526,12.926,2.543,2.217,6.834,4.871,11.463,4.989a128.2,128.2,0,0,0,15.031-6.519q1.39-1.208,2.909-2.372s2.351-1.592,4.671-3.17q.5,1.5,1.016,3.021l.3-.117c4.58-2.84,8.83-5.93,9.68-8.03,1.121-2.782,1.07-6.445,1.05-9.676a41.593,41.593,0,0,1-15.242-11.916,49.426,49.426,0,0,1-9.451-18.528,11.665,11.665,0,0,1-7.488-2.672,18.42,18.42,0,0,1-4.768-6.257,29.01,29.01,0,0,1-2.958-15.378,9.662,9.662,0,0,1,1.014-3.894,6.848,6.848,0,0,1,4.923-3.273,7.242,7.242,0,0,1,5.434,1.407c3.512-1.433,13.3-5.935,15.9-7.475a117.759,117.759,0,0,0,12.26-8.248,50.04,50.04,0,0,0,6.455-1.18,49.123,49.123,0,0,0,4.8-1.267c12.331-3.995,26.181-12.526,32.4-20.134,1.317,7.066,3.343,14.072,10.427,24.127,3.444,4.889,8.444,11,15.437,14.468a7.253,7.253,0,0,1,5.8-1.7,6.848,6.848,0,0,1,4.923,3.273,9.662,9.662,0,0,1,1.014,3.894l1.312-3.518C209.392,75.492,208.7,64.4,208.391,60.14Z"/><path class="b" d="M216.144,133.214c-2.41-7.51-7.09-22.77-7.42-50.05l-1.315,3.523a29.01,29.01,0,0,1-2.958,15.378,18.42,18.42,0,0,1-4.768,6.257A12.215,12.215,0,0,1,194,110.884l-.974.152c-.466,1.745-.99,3.216-1.247,4-1.7,4.627-11.481,20.983-23.632,26.194-.022,3.278-.093,7.054,1.058,9.887.87,2.15,4.95,5.34,9.24,8.24l.221.112q.436-1.674.841-3.326c.643.448,4.49,3.054,4.49,3.054q.508.392,1,.783c3.24,2.693,9.173,5.918,15.723,9.168l3.86-.841c8.58-1.87,14.56-10.47,14.5-18A53.434,53.434,0,0,0,216.144,133.214Z"/><path class="a" d="M19.03,202.306c-.018-.173-.034-.307-.048-.4,2.449-.208,22.41-1.861,30.741-3.594.362,1.828.961,6.241,1.41,8.642l.132.706c-9.688,1.8-22.5,3.554-31.441,3.39l-.031-.264C19.481,208.191,19.187,203.808,19.03,202.306Z"/><path class="a" d="M17.011,124.8a4.866,4.866,0,0,1,5.507,2.348c2.081,4.753,7.2,17.439,10.566,26.026a23.834,23.834,0,0,1,4.268-5.91,9.071,9.071,0,0,1,5.868-2.657,14.911,14.911,0,0,1,8.192,2.067,5.9,5.9,0,0,1,2.744,4.423c.274,1.889-1.237,4.054-3.135,3.847a14.266,14.266,0,0,1-3.383-.907c-2.014-.714-4.318.548-5.42,2.38a11.467,11.467,0,0,0-1.21,6.207c.034,1.569.222,3.282,1.33,4.394,1.883,1.891,5.311.824,6.959-1.275s2.147-4.846,3.111-7.334,2.129-4,4.784-4.27a3.48,3.48,0,0,1,2.492.707,4.843,4.843,0,0,1,1.593,2.815,28.87,28.87,0,0,1-1.357,9.681c-1.351,4.609-2.626,10.858-4.818,15.141-1.792,3.5-4.684,5.358-7.829,7.447-.116.327-.186.522-.186.522-.583,1.636-.534,5.474-.386,7.245l.014.163.091.985c-7.645,1.249-19.936,2.379-25.35,2.851l-.025-1-.023-.876c-.037-2.425-.28-4.494-.4-5.935-.185-1.539-4.689-12.8-7.809-18.717-2.61-5.891-9.868-20.046-10.421-21.743-.521-1.6-.639-3,.43-4.293a4.272,4.272,0,0,1,4.822-.763,7.565,7.565,0,0,1,2.756,3.469c2.386,4.551,4.551,8.98,6.892,13.574h.369l-3.3-9.22c-.845-2.258-4.477-11.624-6.125-16.581-.545-1.639-1.046-5.166,2.054-6.372,2.073-.806,3.652.158,4.734,1.647-.611-2.214-1.09-4.189-1.3-5.3a4.493,4.493,0,0,1,2.807-4.765Z"/><path class="c" d="M18.605,193.889c.17,1.978.37,3.948.4,5.935a2.5,2.5,0,0,0,.7,1.7,2.4,2.4,0,0,0,4.1-1.7c-.033-1.987-.233-3.957-.4-5.935a2.575,2.575,0,0,0-.7-1.7,2.4,2.4,0,0,0-3.394,0,2.35,2.35,0,0,0-.7,1.7Z"/><path class="c" d="M44.773,189.816a10.474,10.474,0,0,0-.405,2.143c-.083.669-.125,1.342-.146,2.016A32.819,32.819,0,0,0,44.3,197.7a2.56,2.56,0,0,0,.7,1.7,2.4,2.4,0,0,0,4.1-1.7,27.8,27.8,0,0,1,.085-5.875l-.086.638a7.3,7.3,0,0,1,.3-1.37,2.415,2.415,0,0,0-1.676-2.952,2.458,2.458,0,0,0-2.952,1.676Z"/><path class="c" d="M17.72,134.252c-.442-1.612-2.908-7.655.833-7.189,1.283.159,1.749.96,2.219,2.052.536,1.245.882,2.077,1.435,3.412q4.347,10.485,8.474,21.06a2.471,2.471,0,0,0,2.952,1.676,2.418,2.418,0,0,0,1.676-2.952q-3.909-9.963-7.978-19.863-.865-2.1-1.747-4.188a15.284,15.284,0,0,0-1.491-3.125C21.851,122.053,16.923,121.2,14,123.8a7.115,7.115,0,0,0-2.345,5.354,28.6,28.6,0,0,0,1.434,6.372c.815,2.975,5.447,1.712,4.629-1.277Z"/><path class="c" d="M26.8,156.272c-1.836-4.388-3.56-8.824-5.31-13.246q-1.165-2.943-2.33-5.886c-1-2.508-2.215-5.062-4.873-6.147a6.262,6.262,0,0,0-8.18,4c-.757,2.476.067,4.936.886,7.265,1.713,4.873,3.626,9.67,5.414,14.515,1.137,3.081,2.216,6.185,3.323,9.278a2.462,2.462,0,0,0,2.952,1.676,2.421,2.421,0,0,0,1.676-2.952c-2.267-6.334-4.631-12.623-6.971-18.931-.864-2.329-1.807-4.662-2.511-7.046a8.158,8.158,0,0,1-.245-1.047c.076.491-.015-.31-.015-.335a5.774,5.774,0,0,1,.016-.767c-.049.422.1-.38.1-.38.156-.477-.126.026.19-.378-.177.226.252-.257.107-.134a1.878,1.878,0,0,1,1.016-.421c1.424-.017,2.12,2.163,2.574,3.306q1.066,2.691,2.13,5.383c1.786,4.514,3.545,9.042,5.418,13.52a2.481,2.481,0,0,0,2.953,1.676,2.415,2.415,0,0,0,1.676-2.952Z"/><path class="c" d="M19.747,164.2c-1.8-3.528-3.55-7.077-5.354-10.6-1.486-2.905-2.949-6.932-6.479-7.837-3.3-.846-7.107.881-7.8,4.412-.427,2.181.4,4.166,1.294,6.091,3.895,8.365,8.222,16.53,12.046,24.928q1.829,4.013,3.437,8.119a24.986,24.986,0,0,1,1.8,5.211,2.417,2.417,0,0,0,2.953,1.676,2.462,2.462,0,0,0,1.676-2.952,19.367,19.367,0,0,0-1.283-3.879c-.864-2.279-1.8-4.532-2.752-6.774-1.756-4.118-3.731-8.135-5.655-12.175-1.976-4.149-4.031-8.259-6.053-12.386-.732-1.493-1.469-2.985-2.163-4.5-.1-.216-.189-.439-.294-.652-.2-.409.162.565.073.177-.017-.075-.065-.143-.083-.218-.173-.688-.64-1.664-.018-2.212a1.8,1.8,0,0,1,2.481.452,25.7,25.7,0,0,1,2.46,4.514c1.88,3.663,3.7,7.356,5.57,11.025,1.4,2.754,5.545.327,4.145-2.423Z"/><path class="c" d="M46.561,193.309c3.586-2.5,7.473-4.666,9.921-8.42,2.419-3.71,3.463-8.382,4.582-12.61,1.2-4.553,2.767-9.129,2.647-13.9a6.992,6.992,0,0,0-3.2-5.877,6.845,6.845,0,0,0-6.393.057c-4,2.021-4.1,6.931-5.935,10.469-.677,1.3-1.8,2.608-3.363,2.574-1.367-.029-1.394-1.977-1.412-3.19-.028-1.883.011-4.4,1.675-5.66a2.188,2.188,0,0,1,1.582-.5,10.473,10.473,0,0,1,1.6.535,12.664,12.664,0,0,0,2.31.5,5.256,5.256,0,0,0,5.321-2.948,7.176,7.176,0,0,0-.278-6.534c-2.241-4.462-8.853-6.118-13.431-5.47-5.481.775-8.854,5.371-11.329,9.92-1.477,2.715,2.666,5.14,4.144,2.423,1.719-3.159,3.968-7.059,7.874-7.628a11.4,11.4,0,0,1,5.493.791c1.433.531,2.77,1.277,3.245,2.808A1.786,1.786,0,0,1,51.6,152.2c-.313.512-.408.38-1.03.245-2.148-.466-3.882-1.427-6.125-.681-4.645,1.546-5.938,6.456-5.832,10.863.051,2.124.408,4.346,1.913,5.958a5.991,5.991,0,0,0,5.236,1.735c4.426-.585,6.628-4.34,7.929-8.218.508-1.516.922-3.433,1.886-4.649.481-.607,1.713-1.3,2.538-.786,1.393.871.8,3.567.637,4.86a43.831,43.831,0,0,1-1.445,6.243c-1.209,4.34-2.068,8.931-4.03,13.014-1.91,3.976-5.658,5.957-9.133,8.381a2.463,2.463,0,0,0-.861,3.284,2.42,2.42,0,0,0,3.283.861Z"/><path class="c" d="M22.193,210.789c-.37-3.164-.446-6.365-.9-9.518l-2.314,3.038c4.444-.377,8.886-.781,13.322-1.241,6.025-.626,12.117-1.217,18.057-2.438l-2.952-1.677c.552,2.866.883,5.771,1.409,8.642a2.422,2.422,0,0,0,2.953,1.676,2.451,2.451,0,0,0,1.676-2.952c-.527-2.871-.857-5.776-1.41-8.642A2.442,2.442,0,0,0,49.085,196a171.045,171.045,0,0,1-17.1,2.3c-4.332.447-8.669.841-13.008,1.209a2.453,2.453,0,0,0-2.314,3.038c-.134-.937-.025-.111-.006.086.031.315.057.631.083.947.061.726.118,1.452.177,2.178.137,1.678.275,3.358.471,5.031a2.473,2.473,0,0,0,2.4,2.4,2.415,2.415,0,0,0,2.4-2.4Z"/><path class="d" d="M246.342,323.861c-2.963-58.963-5.731-110.22-11.331-128.889-1.611-5.369-3.64-10.116-6.325-12.263s-7.148-3.574-10.25-5.073C207.063,172.143,191.164,165.1,185,159.977q-.5-.391-1-.783s-3.847-2.606-4.49-3.054c-4.475,18.334-12.126,38.93-18.54,56.808-4.853,13.529-8.477,23.276-13.4,37.041-4.493-12.428-9.469-25.5-13.9-37.838-6.393-17.822-13.239-38.234-19.181-55.911-2.32,1.578-4.671,3.17-4.671,3.17q-1.516,1.168-2.909,2.372c-9.432,5.079-21.245,8.317-30.949,13.009-2.97,1.43-6.46,2.11-8.71,4.52a25.055,25.055,0,0,0-5.24,8.55c-2.776,7.237-4.6,13.186-6.262,18.919-10.732,2.245-28.308,4.887-38.534,4.167.309,16.291.315,34.5,2.527,51.37,1.537,11.72,4.965,23.225,15.1,29.313a29.191,29.191,0,0,0,25.527,2.616c7.191-2.6,16.279-9.475,21.9-13.466l1.822-1.293c-.017,7.014-2.545,30.216-3.582,44.374Z"/><path class="c" d="M81.164,83.161c0,12.76-.349,25.861-2.355,38.363-.333,2.07-.717,4.134-1.195,6.176-.308,1.315-.661,2.617-.945,3.938-.414,1.92-1,3.777-1.474,5.684a59.433,59.433,0,0,0-1.676,11.884,26.93,26.93,0,0,0,1.017,9.5c2.306,6.953,10.22,11.708,17.338,12,3.089.124,3.083-4.676,0-4.8a15.909,15.909,0,0,1-8.413-3.219,10.541,10.541,0,0,1-4.456-5.761,25.954,25.954,0,0,1-.628-8.9A52.929,52.929,0,0,1,80.244,137a151.743,151.743,0,0,0,4.969-30.236c.555-7.853.75-15.728.751-23.6,0-3.089-4.8-3.094-4.8,0Z"/><path class="c" d="M206.324,83.164a184.115,184.115,0,0,0,4.279,39.148c.825,3.558,1.809,7.074,2.912,10.555a75.107,75.107,0,0,1,2.453,9.246,31.935,31.935,0,0,1,.582,10.215,16.965,16.965,0,0,1-12.6,13.662c-3.009.691-1.736,5.32,1.276,4.628a21.592,21.592,0,0,0,14.69-12.811c2.841-6.772,1.466-14.874-.409-21.737-1.1-4.022-2.489-7.951-3.528-11.992a143.15,143.15,0,0,1-3.037-15.412,198.655,198.655,0,0,1-1.814-25.5c-.04-3.086-4.84-3.095-4.8,0Z"/><path class="c" d="M197.368,82.915a4.753,4.753,0,0,1,6.778.793A8.148,8.148,0,0,1,205.092,88a25.538,25.538,0,0,1-.3,5.263c-1.074,6.345-4.371,14.076-11.434,15.306a2.421,2.421,0,0,0-1.677,2.952,2.456,2.456,0,0,0,2.953,1.677c9.71-1.692,14.351-12.708,15.156-21.474.39-4.242.281-9.548-3.3-12.474a9.712,9.712,0,0,0-12.518.27,2.421,2.421,0,0,0,0,3.394,2.451,2.451,0,0,0,3.395,0Z"/><path class="c" d="M191.524,105.486a24.137,24.137,0,0,1-1.127,6.024c-.229.771-.481,1.535-.737,2.3-.078.233-.158.464-.237.7-.161.469-.1.235-.033.1a50.881,50.881,0,0,1-3.237,5.924,57.483,57.483,0,0,1-12.837,14.8,24.358,24.358,0,0,1-9.466,4.786c-3.009.694-1.735,5.323,1.276,4.628,7.307-1.685,13.426-6.942,18.242-12.459a62.623,62.623,0,0,0,10.014-14.913,32.126,32.126,0,0,0,2.942-11.878c.106-3.089-4.694-3.085-4.8,0Z"/><path class="c" d="M100.053,79.521a9.712,9.712,0,0,0-12.518-.27c-3.583,2.926-3.692,8.232-3.3,12.474.8,8.766,5.446,19.782,15.156,21.474a2.47,2.47,0,0,0,2.953-1.677,2.421,2.421,0,0,0-1.677-2.952c-7.063-1.23-10.36-8.961-11.434-15.306a25.612,25.612,0,0,1-.3-5.263,8.277,8.277,0,0,1,.946-4.293,4.747,4.747,0,0,1,6.778-.793,2.465,2.465,0,0,0,3.395,0,2.421,2.421,0,0,0,0-3.394Z"/><path class="c" d="M98.5,107.443c3.071,14.516,11.639,28.664,25.317,35.38a34.3,34.3,0,0,0,11.661,3.341,2.416,2.416,0,0,0,2.4-2.4,2.454,2.454,0,0,0-2.4-2.4c-13.461-1.4-24.471-13.04-29.313-25.052a60.68,60.68,0,0,1-3.037-10.145c-.639-3.02-5.267-1.742-4.628,1.276Z"/><path class="c" d="M171.352,3.9C162.6.547,153.044-.331,143.729.1a69.9,69.9,0,0,0-30.723,9.126,54.417,54.417,0,0,0-17.619,15.26A69.6,69.6,0,0,0,84.9,47.209c-3.2,11.664-4.114,23.907-3.732,35.96.1,3.081,4.9,3.094,4.8,0-.577-18.2,1.657-37.864,11.7-53.526a47.16,47.16,0,0,1,14.8-14.5,66.151,66.151,0,0,1,27.368-9.919A78.613,78.613,0,0,1,157.77,5.4a51.125,51.125,0,0,1,12.306,3.123,2.419,2.419,0,0,0,2.953-1.676A2.454,2.454,0,0,0,171.352,3.9Z"/><path class="c" d="M211.121,83.169A126.342,126.342,0,0,0,211.18,66.7a106.533,106.533,0,0,0-1.439-14.626C207.664,40.953,203.108,29.826,195.8,21.1c-1.921-2.3-4.129-4.346-6.245-6.459a30.6,30.6,0,0,0-6.9-5.259c-2.708-1.491-5.132,2.653-2.422,4.144a24.539,24.539,0,0,1,5.455,4.044c1.866,1.829,3.779,3.648,5.539,5.579a52.277,52.277,0,0,1,8.458,13.134,70.868,70.868,0,0,1,5.109,15.5,88.423,88.423,0,0,1,1.521,13.732,130.736,130.736,0,0,1,0,17.659,2.419,2.419,0,0,0,2.4,2.4,2.45,2.45,0,0,0,2.4-2.4Z"/><path class="c" d="M165.744,141.234a50.57,50.57,0,0,0,.21,6.337,12.522,12.522,0,0,0,1.69,5.667c2.372,3.425,6.2,5.888,9.589,8.188a2.4,2.4,0,0,0,2.422-4.144c-1.614-1.095-3.218-2.214-4.728-3.45-.661-.541-1.308-1.1-1.921-1.7-.268-.26-.53-.526-.781-.8-.127-.14-.25-.283-.371-.428-.245-.294.265.432-.065-.091-.145-.23-.291-.45-.414-.693-.131-.26.131.388,0-.038-.072-.226-.153-.448-.218-.676a13.981,13.981,0,0,1-.45-2.294,53.905,53.905,0,0,1-.158-5.88c.02-3.089-4.78-3.093-4.8,0Z"/><path class="c" d="M124.124,141.444a51.44,51.44,0,0,1-.164,5.757,14.215,14.215,0,0,1-.483,2.362c-.066.222-.142.439-.218.658.053-.152.135-.232.016-.045-.085.133-.548.819-.212.393-2.189,2.771-5.511,4.655-8.48,6.5a2.4,2.4,0,1,0,2.422,4.144c1.939-1.206,3.853-2.459,5.668-3.846a20.659,20.659,0,0,0,4.278-4.045,11.2,11.2,0,0,0,1.7-5.211,48.078,48.078,0,0,0,.277-6.67c-.019-3.088-4.819-3.094-4.8,0Z"/><path class="c" d="M139.4,47.868a65.221,65.221,0,0,1-15.778,16.265A99.388,99.388,0,0,1,106.459,74.5q-2.476,1.17-4.973,2.3-1.1.493-2.194.978-.486.215-.971.424l-.338.145c-.7.3.4-.165-.24.1A2.48,2.48,0,0,0,96.067,81.4a2.414,2.414,0,0,0,2.952,1.676,147.047,147.047,0,0,0,15.811-7.4,97.7,97.7,0,0,0,20.039-14.871,62.449,62.449,0,0,0,8.677-10.517c1.691-2.6-2.463-5-4.145-2.423Z"/><path class="c" d="M136.764,60.443c-1.851.583-3.728,1.026-5.62,1.452-.847.191-1.694.381-2.547.541q-.65.122-1.3.22c-.125.019-.917.152-.26.04-.264.045-.535.067-.8.1a2.46,2.46,0,0,0-2.4,2.4c.053,1.176,1.064,2.556,2.4,2.4a64.372,64.372,0,0,0,11.807-2.522,2.4,2.4,0,0,0-1.276-4.629Z"/><path class="c" d="M167.943,41.127a55.03,55.03,0,0,1-13.413,10.94,83.418,83.418,0,0,1-17.766,8.376c-2.923.957-1.672,5.593,1.276,4.629a88.846,88.846,0,0,0,18.913-8.861c5.222-3.222,10.407-6.972,14.384-11.69a2.464,2.464,0,0,0,0-3.394,2.419,2.419,0,0,0-3.394,0Z"/><path class="c" d="M196.882,79.145c-7.2-3.637-12.4-10.057-16.68-16.73a55.617,55.617,0,0,1-7.877-19.34,2.424,2.424,0,0,0-2.952-1.677,2.449,2.449,0,0,0-1.677,2.953,57.245,57.245,0,0,0,5.509,15.626,69.13,69.13,0,0,0,11.719,16.237,37.293,37.293,0,0,0,9.535,7.076c2.751,1.39,5.183-2.75,2.423-4.145Z"/><path class="c" d="M122.168,180.937a93.625,93.625,0,0,0,25.2,3.407c8.145-.133,16.763-1.112,24.391-4.1a2.471,2.471,0,0,0,1.677-2.952,2.419,2.419,0,0,0-2.953-1.676c-7.265,2.844-15.358,3.8-23.115,3.926a88.641,88.641,0,0,1-23.92-3.235c-2.989-.792-4.264,3.837-1.276,4.628Z"/><path class="c" d="M135.906,260.817a6.165,6.165,0,0,1,.738.786l-.375-.486a5.239,5.239,0,0,1,.6,1.013l-.242-.573a4.968,4.968,0,0,1,.338,1.22l-.085-.638a5.445,5.445,0,0,1,0,1.362l.086-.638a5.955,5.955,0,0,1-.393,1.437l.242-.573a4.952,4.952,0,0,1-.576,1.017l.375-.486a4.3,4.3,0,0,1-.758.749l.486-.375a5.173,5.173,0,0,1-1.077.615l.574-.242a6.061,6.061,0,0,1-1.4.375l.638-.085a6.437,6.437,0,0,1-1.635,0l.638.086a5.651,5.651,0,0,1-1.341-.357l.573.242a4.477,4.477,0,0,1-.914-.523l.486.375a5.457,5.457,0,0,1-.89-.888l.375.486a4.707,4.707,0,0,1-.594-1.017l.242.573a4.383,4.383,0,0,1-.258-.962l.086.638a4.7,4.7,0,0,1,0-1.167l-.086.638a5.757,5.757,0,0,1,.4-1.421l-.242.573a7.384,7.384,0,0,1,.925-1.549l-.376.486a4.486,4.486,0,0,1,.716-.735l-.486.375a4.844,4.844,0,0,1,.984-.575l-.574.242a5.726,5.726,0,0,1,1.441-.389l-.638.086a5.767,5.767,0,0,1,1.42,0l-.638-.086a5.138,5.138,0,0,1,1.169.313l-.573-.242a4.368,4.368,0,0,1,.955.557l-.486-.375c.053.042.1.085.156.13a2.554,2.554,0,0,0,1.7.7,2.4,2.4,0,0,0,1.7-4.1,7.129,7.129,0,0,0-4.585-1.75,7.539,7.539,0,0,0-4.182,1.145,8,8,0,0,0-3.357,8.064,6.944,6.944,0,0,0,2.863,4.062A7.775,7.775,0,0,0,140.8,266.49a7.775,7.775,0,0,0,.9-4.164,7.406,7.406,0,0,0-2.4-4.9,2.4,2.4,0,0,0-3.394,3.394Z"/><path class="c" d="M148.446,323.861c2-18.366,4.228-36.676,5.051-55.144a44.981,44.981,0,0,0-.272-8.373,40.7,40.7,0,0,0-2.512-8.677,2.467,2.467,0,0,0-2.952-1.676,2.418,2.418,0,0,0-1.676,2.952,42.883,42.883,0,0,1,2.345,7.612,33.667,33.667,0,0,1,.309,7.158c-.189,4.968-.541,9.932-.884,14.891-.617,8.911-1.6,17.783-2.583,26.66-.541,4.866-1.1,9.73-1.626,14.6a2.415,2.415,0,0,0,2.4,2.4,2.456,2.456,0,0,0,2.4-2.4Z"/><path class="c" d="M57.338,209.909c1.271-4.429,2.571-8.848,4.036-13.217,1.56-4.652,2.991-9.613,5.872-13.648a11.5,11.5,0,0,1,4.6-3.979c2.116-.991,4.336-1.754,6.46-2.741,4.5-2.091,9.161-3.791,13.792-5.55a138.072,138.072,0,0,0,15.889-6.851c2.729-1.45.307-5.595-2.422-4.145-9.241,4.911-19.4,7.733-28.913,12.048-4.342,1.97-9.065,3.213-12.2,7.033-3.395,4.143-5.114,9.083-6.861,14.08-1.809,5.174-3.373,10.426-4.884,15.694-.854,2.974,3.777,4.244,4.628,1.276Z"/><path class="c" d="M186.237,163.859a135.092,135.092,0,0,0,16.305,8.845c6.06,2.941,12.119,5.985,18.329,8.6,2.558,1.076,5.559,2.14,7.374,4.347a24.48,24.48,0,0,1,3.775,7.825,79.609,79.609,0,0,1,2.671,10.729c1.738,9.34,2.673,18.539,3.558,28.12,1.2,12.964,2.07,25.958,2.86,38.952,1.065,17.523,1.952,35.055,2.833,52.588.155,3.074,4.955,3.092,4.8,0-.8-15.921-1.607-31.842-2.544-47.756-.8-13.552-1.673-27.1-2.864-40.625-.894-10.149-1.905-20.323-3.625-30.37a95.754,95.754,0,0,0-2.2-10.135c-1.69-5.915-3.94-12.444-9.582-15.643-2.805-1.59-5.891-2.616-8.792-4.013-3.079-1.483-6.174-2.935-9.261-4.4-6.026-2.865-12.088-5.727-17.851-9.1-1.142-.668-2.268-1.364-3.368-2.1-2.575-1.722-4.98,2.434-2.422,4.145Z"/><path class="c" d="M177.1,155.889c-3.058,12.374-7.1,24.486-11.319,36.5-4.2,11.962-8.534,23.878-12.87,35.791q-3.624,9.959-7.219,19.928a2.422,2.422,0,0,0,1.676,2.952,2.45,2.45,0,0,0,2.953-1.676c8.595-23.953,17.8-47.735,25.579-71.971,2.147-6.69,4.142-13.43,5.828-20.252.741-3-3.887-4.278-4.628-1.276Z"/><path class="c" d="M165.179,244.566q9.054-12.936,17.488-26.293,4.264-6.762,8.363-13.627c2.667-4.469,5.447-8.93,7.86-13.543a4.478,4.478,0,0,0,.182-4.324,14.031,14.031,0,0,0-2.825-3.164c-2.124-2.092-4.33-4.1-6.547-6.088l-.486,3.77c1.98-1.175,3.93-2.4,5.951-3.509,1.963-1.074,4.765-1.974,4.044-4.847a16.432,16.432,0,0,0-2.846-4.989,39.648,39.648,0,0,0-3.7-4.4,75.3,75.3,0,0,0-12.048-9.541c-2.564-1.737-4.969,2.419-2.423,4.144l2.9,1.963a38.188,38.188,0,0,1,3.424,2.527,52.482,52.482,0,0,1,5.847,5.466,27.921,27.921,0,0,1,2.308,2.9q.5.728.953,1.484.252.423.491.853c.058.1.388.836.385.621l.328-1.211-.163.258.861-.861a41.756,41.756,0,0,1-4.2,2.285c-1.523.882-3.02,1.81-4.533,2.708a2.421,2.421,0,0,0-.486,3.769c1.808,1.625,3.609,3.259,5.365,4.941q1.271,1.217,2.5,2.473c.055.055.512.628.649.668-.083-.024.012-.49,0-.474-.266.526-.578,1.033-.87,1.546q-3.705,6.526-7.563,12.967-7.608,12.7-15.789,25.053-4.695,7.086-9.571,14.049a2.42,2.42,0,0,0,.861,3.283,2.448,2.448,0,0,0,3.283-.861Z"/><path class="c" d="M215.978,323.861c-.746-10.132-1.786-20.241-2.66-30.362-.584-6.77-1.224-13.427-.47-20.2,1.89-16.949,5.769-34.082,8.475-51.1.935-5.883,1.82-11.774,2.8-17.649a92.142,92.142,0,0,1,2.389-11.753c.9-2.961-3.728-4.227-4.629-1.276a82.322,82.322,0,0,0-2.119,10.158c-.875,5.109-1.654,10.234-2.457,15.354-1.425,9.087-3.085,18.118-4.726,27.167-1.576,8.688-3.056,17.405-4.18,26.165a70.081,70.081,0,0,0-.8,9.281c.021,3.48.349,6.967.631,10.432.919,11.266,2.118,22.508,2.948,33.781a2.459,2.459,0,0,0,2.4,2.4,2.42,2.42,0,0,0,2.4-2.4Z"/><path class="c" d="M68.8,192.209c-.086-.644.046.352.071.536q.072.55.143,1.1.181,1.392.359,2.785.415,3.258.835,6.515,1.041,8.055,2.17,16.1c1.333,9.4,2.895,18.75,4.594,28.087,1.472,8.087,3.031,16.593,4.044,24.487a56.56,56.56,0,0,1,.64,8.755c-.1,3.545-.411,7.087-.7,10.62-.908,10.893-2.054,21.767-2.857,32.669a2.4,2.4,0,0,0,4.8,0c.722-9.792,1.718-19.563,2.572-29.343.585-6.692,1.387-13.415.658-20.12-1.9-17.448-5.92-34.635-8.476-51.992-1.543-10.474-2.807-20.982-4.219-31.473a2.415,2.415,0,0,0-2.953-1.677,2.466,2.466,0,0,0-1.676,2.953Z"/><path class="c" d="M112.239,157.085c8.375,24.917,16.84,49.789,25.978,74.438,2.647,7.139,5.3,14.275,7.871,21.441a2.463,2.463,0,0,0,2.952,1.676,2.421,2.421,0,0,0,1.677-2.952c-4.584-12.768-9.421-25.442-14.028-38.2-4.453-12.331-8.7-24.735-12.906-37.151q-3.474-10.258-6.916-20.527c-.979-2.913-5.616-1.664-4.628,1.276Z"/><path class="c" d="M132.94,242.672q-17.053-24.368-31.862-50.207-.532-.93-1.061-1.862c-.157-.276-.314-.551-.47-.828-.062-.11-.418-.923-.381-.594.008.063.045.3-.016.351.344-.3.657-.679.976-1q.66-.667,1.332-1.322c2.02-1.972,4.111-3.871,6.211-5.758a2.421,2.421,0,0,0-.486-3.769c-1.513-.9-3.011-1.825-4.533-2.709a41.749,41.749,0,0,1-4.2-2.284l.861.861-.163-.259.328,1.212c0,.18.25-.376.289-.45q.234-.436.481-.866c.329-.57.677-1.13,1.039-1.679a30.493,30.493,0,0,1,2.258-3,48.167,48.167,0,0,1,5.759-5.631,33.816,33.816,0,0,1,3.415-2.543l2.9-1.963c2.543-1.723.144-5.883-2.423-4.144a66.619,66.619,0,0,0-11.972,9.682,41.892,41.892,0,0,0-3.636,4.521,17.688,17.688,0,0,0-2.819,5.039c-.731,2.774,1.931,3.7,3.842,4.737,2.093,1.132,4.107,2.405,6.153,3.619l-.486-3.769c-1.984,1.782-3.958,3.575-5.874,5.43-1.734,1.679-4.154,3.486-3.976,6.15a8.349,8.349,0,0,0,1.447,3.39q1.059,1.864,2.129,3.721,1.905,3.3,3.848,6.583,8.094,13.662,16.848,26.918,4.947,7.493,10.1,14.847a2.464,2.464,0,0,0,3.283.861,2.42,2.42,0,0,0,.861-3.284Z"/><path class="c" d="M62.268,251.077c-2.073-14.658-3.494-29.39-5.019-44.111a2.447,2.447,0,0,0-3.038-2.315c-6.187,1.257-12.429,2.281-18.7,3.017a100.336,100.336,0,0,1-18.3.879,2.421,2.421,0,0,0-2.4,2.4c.193,10.295.273,20.6.78,30.881.481,9.76,1.027,19.8,3.305,29.339,1.966,8.236,5.762,16.048,12.7,21.181a31.886,31.886,0,0,0,27.333,4.88c9.137-2.6,16.929-8.961,24.544-14.375a2.468,2.468,0,0,0,.861-3.284,2.42,2.42,0,0,0-3.284-.861c-6.455,4.59-12.93,9.792-20.309,12.835a27.372,27.372,0,0,1-24.695-1.985c-6.626-4-10.223-10.939-12.156-18.213-2.337-8.8-2.87-18.116-3.376-27.164-.618-11.067-.7-22.154-.9-33.234l-2.4,2.4a101.4,101.4,0,0,0,18.7-.926q9.845-1.178,19.578-3.141l-3.038-2.314c1.569,15.149,3.057,30.3,5.191,45.387a2.415,2.415,0,0,0,2.952,1.676,2.464,2.464,0,0,0,1.676-2.952Z"/><path class="c" d="M139.153,120.339A19.408,19.408,0,0,0,148.5,122.5a15.2,15.2,0,0,0,9.428-2.778,2.413,2.413,0,0,0,0-3.394,2.462,2.462,0,0,0-3.394,0c.726-.565.155-.128-.032-.008s-.381.232-.579.335c-.163.086-.874.368-.22.126-.266.1-.528.2-.8.291a14.018,14.018,0,0,1-2.235.51c.35-.052-.086.006-.222.02-.219.021-.439.04-.659.054-.529.034-1.059.047-1.589.044-.474,0-.949-.019-1.422-.051-.218-.015-.435-.032-.652-.054-.018,0-.8-.11-.323-.035a16.028,16.028,0,0,1-2.089-.464c-.292-.087-.577-.192-.866-.291-.616-.211.344.179-.212-.083q-.537-.253-1.061-.53a2.453,2.453,0,0,0-3.284.861,2.427,2.427,0,0,0,.861,3.284Z"/><path class="c" d="M147.3,98.3a43.76,43.76,0,0,1,1.035,4.732l-.086-.638a2.852,2.852,0,0,1,.018.653l.086-.638a1.639,1.639,0,0,1-.072.294l.242-.574a1.2,1.2,0,0,1-.1.189l.375-.486a.969.969,0,0,1-.154.153l.485-.375a3.256,3.256,0,0,1-.374.2l.573-.242a2.727,2.727,0,0,1-.632.184l.638-.085a2.557,2.557,0,0,1-.593,0l.638.085c-.223-.031-.443-.085-.666-.115a1.812,1.812,0,0,0-.957-.043,1.778,1.778,0,0,0-.893.285,2.4,2.4,0,0,0-.861,3.283,2.3,2.3,0,0,0,1.435,1.1c.506.068,1,.2,1.513.22a4.843,4.843,0,0,0,2.227-.529,3.212,3.212,0,0,0,1.781-2.116,5.328,5.328,0,0,0-.023-2.283c-.258-1.524-.61-3.035-1-4.53A2.4,2.4,0,1,0,147.3,98.3Z"/><path class="c" d="M122.251,84.9c-.791,2.568-.275,8.476,4.59,8.979,6.43-.039,6.772-7.181,4.608-10.539C129.676,80.591,124.465,79.448,122.251,84.9Z"/><path class="c" d="M173.744,84.9c.791,2.568.276,8.475-4.589,8.978-6.431-.039-6.773-7.181-4.609-10.539C166.318,80.591,171.53,79.448,173.744,84.9Z"/></svg>